<svg width="20" height="18" viewBox="0 0 20 18" fill="none" xmlns="http://www.w3.org/2000/svg">
<path d="M5.5 0.5C2.47266 0.5 0 2.97266 0 6C0 8.04688 1.54297 9.97656 3.42578 11.9531C5.30859 13.9336 7.625 15.9336 9.46875 17.7812C9.76172 18.0742 10.2383 18.0742 10.5312 17.7812C12.375 15.9336 14.6914 13.9336 16.5742 11.9531C18.457 9.97656 20 8.04688 20 6C20 2.97266 17.5273 0.5 14.5 0.5C12.7617 0.5 11.25 1.43359 10 3.01953C8.75 1.43359 7.23828 0.5 5.5 0.5ZM5.5 2C6.96484 2 8.18359 2.77734 9.36719 4.65234C9.50391 4.86719 9.74219 5 10 5C10.2578 5 10.4961 4.86719 10.6328 4.65234C11.8164 2.77734 13.0352 2 14.5 2C16.7188 2 18.5 3.78125 18.5 6C18.5 7.20312 17.293 9.02344 15.4883 10.9219C13.8398 12.6523 11.7969 14.457 10 16.2109C8.20312 14.457 6.16016 12.6523 4.51172 10.9219C2.70703 9.02344 1.5 7.20312 1.5 6C1.5 3.78125 3.28125 2 5.5 2Z" fill="#A846A0"/>
</svg>
