<?xml version="1.0" encoding="UTF-8" standalone="no"?>
<svg
   xmlns:dc="http://purl.org/dc/elements/1.1/"
   xmlns:cc="http://creativecommons.org/ns#"
   xmlns:rdf="http://www.w3.org/1999/02/22-rdf-syntax-ns#"
   xmlns:svg="http://www.w3.org/2000/svg"
   xmlns="http://www.w3.org/2000/svg"
   xmlns:sodipodi="http://sodipodi.sourceforge.net/DTD/sodipodi-0.dtd"
   xmlns:inkscape="http://www.inkscape.org/namespaces/inkscape"
   sodipodi:docname="roomie-finder-official-logo.svg"
   width="150"
   height="37.641335"
   viewBox="0 0 39.687499 9.95927"
   version="1.1"
   id="svg8"
   inkscape:version="1.0 (4035a4fb49, 2020-05-01)">
  <defs
     id="defs2" />
  <sodipodi:namedview
     inkscape:window-maximized="0"
     inkscape:window-y="0"
     inkscape:window-x="208"
     inkscape:window-height="1040"
     inkscape:window-width="1418"
     fit-margin-bottom="0"
     fit-margin-right="0"
     fit-margin-left="0"
     fit-margin-top="0"
     id="base"
     pagecolor="#ffffff"
     bordercolor="#666666"
     borderopacity="1.0"
     inkscape:pageopacity="0.0"
     inkscape:pageshadow="2"
     inkscape:zoom="3.8181818"
     inkscape:cx="69.999996"
     inkscape:cy="11.428571"
     inkscape:document-units="px"
     inkscape:current-layer="layer1"
     inkscape:document-rotation="0"
     showgrid="false"
     showborder="false"
     units="px" />
  <metadata
     id="metadata5">
    <rdf:RDF>
      <cc:Work
         rdf:about="">
        <dc:format>image/svg+xml</dc:format>
        <dc:type
           rdf:resource="http://purl.org/dc/dcmitype/StillImage" />
        <dc:title></dc:title>
      </cc:Work>
    </rdf:RDF>
  </metadata>
  <g
     transform="translate(94.738602,-2.7772453)"
     inkscape:label="Capa 1"
     inkscape:groupmode="layer"
     id="layer1">
    <g
       transform="matrix(0.10083607,0,0,0.10083607,-92.16011,5.0889233)"
       id="g1514">
      <path
         d="m 14.277165,-22.924182 c -0.146448,-0.0017 -0.292579,-0.0011 -0.438733,0.0021 -4.4643589,0.09594 -8.762463,2.457591 -11.1672773,6.622851 l -26.4583327,45.82714 c -3.66448,6.347066 -1.504982,14.407287 4.842081,18.071767 L -3.96875,56.246177 V 29.104166 A 13.229166,13.229166 0 0 1 -0.09405111,19.749699 13.229166,13.229166 0 0 1 9.2604166,15.875 H 22.489583 L 19.84375,29.104166 H 9.2604166 V 58.208333 H -0.57050781 L 26.882079,74.058012 c 6.347066,3.664479 14.407287,1.504466 18.071766,-4.8426 L 71.412178,23.388236 C 75.076658,17.041173 72.916644,8.9814671 66.569579,5.316988 L 51.241832,-3.5326007 48.947916,7.9374999 H 38.364583 V 15.875 h 7.9375 L 43.656249,29.104166 H 38.364583 V 58.208333 H 25.135416 V 7.9374999 A 13.229165,13.229165 0 0 1 38.364583,-5.2916666 h 9.830408 L 20.742403,-21.141345 c -2.04544,-1.180936 -4.268525,-1.756861 -6.465238,-1.782837 z m 2.920751,57.331384 a 3.96875,5.2916663 0 0 1 -0.0036,0.211357 z"
         style="fill:#272d2d;fill-opacity:1;stroke-width:2.64583;stroke-linecap:round;stroke-linejoin:round"
         id="rect906" />
      <g
         style="fill:#272d2d;fill-opacity:1"
         id="g948"
         transform="translate(0,-82.398807)">
        <g
           style="fill:#272d2d;fill-opacity:1"
           id="g932">
          <path
             sodipodi:nodetypes="ccccccccc"
             d="m 85.871453,127.2578 v -14.58248 c 0,-6.64369 4.867371,-10.44239 11.702803,-10.44239 0.736025,0 1.504763,0.0736 2.306213,0.22081 l -0.588821,3.75373 c -0.801449,-0.19627 -1.553831,-0.29441 -2.257144,-0.29441 -5.607377,0 -7.114912,3.59014 -7.114912,8.66057 v 12.68417 z"
             style="font-size:50.246px;line-height:1.25;font-family:'Kumbh Sans';-inkscape-font-specification:'Kumbh Sans';letter-spacing:-2.58233px;fill:#272d2d;fill-opacity:1;stroke-width:1.25616"
             id="path920" />
          <path
             d="m 99.727023,114.99071 q 0,-3.68013 1.643787,-6.55063 1.66833,-2.89503 4.53883,-4.53882 2.89503,-1.66833 6.57516,-1.66833 3.68012,0 6.55062,1.66833 2.89503,1.64379 4.53882,4.53882 1.66833,2.8705 1.66833,6.55063 0,3.68012 -1.66833,6.57516 -1.64379,2.8705 -4.53882,4.53882 -2.8705,1.64379 -6.55062,1.64379 -3.68013,0 -6.57516,-1.64379 -2.8705,-1.66832 -4.53883,-4.53882 -1.643787,-2.89504 -1.643787,-6.57516 z m 4.170807,0 q 0,2.60062 1.10404,4.66149 1.12857,2.06087 3.06677,3.23851 1.9382,1.17764 4.41616,1.17764 2.47795,0 4.41615,-1.17764 1.9382,-1.17764 3.04224,-3.23851 1.12857,-2.06087 1.12857,-4.66149 0,-2.62516 -1.12857,-4.6615 -1.10404,-2.06087 -3.04224,-3.23851 -1.9382,-1.17764 -4.41615,-1.17764 -2.47796,0 -4.41616,1.17764 -1.9382,1.17764 -3.06677,3.23851 -1.10404,2.03634 -1.10404,4.6615 z"
             style="font-size:50.246px;line-height:1.25;font-family:'Kumbh Sans';-inkscape-font-specification:'Kumbh Sans';letter-spacing:-2.58233px;fill:#272d2d;fill-opacity:1;stroke-width:1.25616"
             id="path922" />
          <path
             d="m 127.07639,114.99071 q 0,-3.68013 1.64379,-6.55063 1.66832,-2.89503 4.53882,-4.53882 2.89504,-1.66833 6.57516,-1.66833 3.68013,0 6.55063,1.66833 2.89503,1.64379 4.53882,4.53882 1.66832,2.8705 1.66832,6.55063 0,3.68012 -1.66832,6.57516 -1.64379,2.8705 -4.53882,4.53882 -2.8705,1.64379 -6.55063,1.64379 -3.68012,0 -6.57516,-1.64379 -2.8705,-1.66832 -4.53882,-4.53882 -1.64379,-2.89504 -1.64379,-6.57516 z m 4.17081,0 q 0,2.60062 1.10404,4.66149 1.12857,2.06087 3.06677,3.23851 1.9382,1.17764 4.41615,1.17764 2.47795,0 4.41615,-1.17764 1.9382,-1.17764 3.04224,-3.23851 1.12857,-2.06087 1.12857,-4.66149 0,-2.62516 -1.12857,-4.6615 -1.10404,-2.06087 -3.04224,-3.23851 -1.9382,-1.17764 -4.41615,-1.17764 -2.47795,0 -4.41615,1.17764 -1.9382,1.17764 -3.06677,3.23851 -1.10404,2.03634 -1.10404,4.6615 z"
             style="font-size:50.246px;line-height:1.25;font-family:'Kumbh Sans';-inkscape-font-specification:'Kumbh Sans';letter-spacing:-2.58233px;fill:#272d2d;fill-opacity:1;stroke-width:1.25616"
             id="path924" />
          <path
             d="m 159.79874,102.72362 0.17174,2.91957 q 1.42298,-1.59473 3.36118,-2.50249 1.96274,-0.90777 4.26895,-0.90777 2.77236,0 4.93137,1.32485 2.15901,1.30031 3.36118,3.63106 1.39845,-2.28168 3.68013,-3.60653 2.28168,-1.34938 5.07858,-1.34938 2.82143,0 4.98043,1.34938 2.18355,1.34938 3.41026,3.77827 1.25124,2.42888 1.25124,5.64286 v 14.27889 h -4.04814 v -13.66554 q 0,-2.57609 -0.95683,-4.26894 -0.9323,-1.7174 -2.42889,-2.57609 -1.47205,-0.8587 -3.11584,-0.8587 -1.61925,0 -3.11584,0.8587 -1.49658,0.85869 -2.45342,2.57609 -0.9323,1.71739 -0.9323,4.31801 v 13.61647 h -4.04814 v -13.66554 q 0,-2.57609 -0.95683,-4.26894 -0.9323,-1.7174 -2.42888,-2.57609 -1.47205,-0.8587 -3.11584,-0.8587 -1.61926,0 -3.11584,0.8587 -1.47205,0.85869 -2.42889,2.57609 -0.95683,1.71739 -0.95683,4.31801 v 13.59194 h -4.04814 v -24.53418 z"
             style="font-size:50.246px;line-height:1.25;font-family:'Kumbh Sans';-inkscape-font-specification:'Kumbh Sans';letter-spacing:-2.58233px;fill:#272d2d;fill-opacity:1;stroke-width:1.25616"
             id="path926" />
          <path
             d="m 198.31116,93.277959 q 0,-1.226708 0.78509,-2.011802 0.80963,-0.809628 2.01181,-0.809628 1.2267,0 2.03633,0.809628 0.80963,0.785094 0.80963,2.011802 0,1.202175 -0.80963,2.011803 -0.80963,0.809628 -2.03633,0.809628 -1.20218,0 -2.01181,-0.809628 -0.78509,-0.809628 -0.78509,-2.011803 z m 0.78509,33.979841 v -24.53418 h 4.07268 v 24.53418 z"
             style="font-size:50.246px;line-height:1.25;font-family:'Kumbh Sans';-inkscape-font-specification:'Kumbh Sans';letter-spacing:-2.58233px;fill:#272d2d;fill-opacity:1;stroke-width:1.25616"
             id="path928" />
          <path
             d="m 231.84314,114.96617 v 1.64379 h -20.80498 q 0.61335,3.26305 3.14037,5.37299 2.55156,2.0854 6.13355,2.0854 1.98727,0 4.19534,-0.76056 2.20808,-0.78509 4.02361,-2.50248 l 2.37981,3.04224 q -2.67422,2.23261 -5.34845,3.06677 -2.64969,0.83416 -5.12764,0.83416 -3.97454,0 -7.06585,-1.64379 -3.0913,-1.66832 -4.85776,-4.58789 -1.74193,-2.91957 -1.74193,-6.64876 0,-3.63106 1.64379,-6.47703 1.64379,-2.8705 4.51429,-4.51429 2.8705,-1.64379 6.50156,-1.64379 3.63106,0 6.42795,1.64379 2.7969,1.64379 4.39162,4.51429 1.59472,2.8705 1.59472,6.57516 z m -20.85405,-1.79099 h 16.63417 q -0.53975,-3.21398 -2.77236,-5.22578 -2.23261,-2.03634 -5.44659,-2.03634 -3.26304,0 -5.56926,2.06087 -2.30621,2.03634 -2.84596,5.20125 z"
             style="font-size:50.246px;line-height:1.25;font-family:'Kumbh Sans';-inkscape-font-specification:'Kumbh Sans';letter-spacing:-2.58233px;fill:#272d2d;fill-opacity:1;stroke-width:1.25616"
             id="path930" />
        </g>
        <g
           style="fill:#272d2d;fill-opacity:1"
           id="g946">
          <path
             d="m 244.14682,106.40375 v -3.68013 h 4.04814 v -4.612427 q 0,-3.655593 2.06087,-5.888203 2.06087,-2.257145 5.34845,-2.257145 1.44752,0 2.6497,0.441616 1.20217,0.417081 2.13447,1.128572 l -1.57019,3.385716 q -1.0795,-1.275777 -2.79689,-1.275777 -1.64379,0 -2.7233,1.251243 -1.05497,1.251243 -1.05497,3.213978 v 4.612427 h 6.57516 v 3.68013 h -6.57516 v 20.85405 h -4.04814 v -20.85405 z"
             style="font-size:50.246px;line-height:1.25;font-family:'Kumbh Sans';-inkscape-font-specification:'Kumbh Sans';letter-spacing:-2.58233px;fill:#272d2d;fill-opacity:1;stroke-width:1.25616"
             id="path934" />
          <path
             d="m 260.79928,93.277959 q 0,-1.226708 0.78509,-2.011802 0.80963,-0.809628 2.01181,-0.809628 1.22671,0 2.03633,0.809628 0.80963,0.785094 0.80963,2.011802 0,1.202175 -0.80963,2.011803 -0.80962,0.809628 -2.03633,0.809628 -1.20218,0 -2.01181,-0.809628 -0.78509,-0.809628 -0.78509,-2.011803 z m 0.78509,33.979841 v -24.53418 h 4.07268 v 24.53418 z"
             style="font-size:50.246px;line-height:1.25;font-family:'Kumbh Sans';-inkscape-font-specification:'Kumbh Sans';letter-spacing:-2.58233px;fill:#272d2d;fill-opacity:1;stroke-width:1.25616"
             id="path936" />
          <path
             d="m 270.97472,127.2578 v -24.53418 h 3.6556 l 0.2208,3.72919 q 1.44752,-1.98726 3.55746,-3.0913 2.10994,-1.12858 4.71056,-1.12858 2.96864,0 5.25032,1.44752 2.30621,1.42298 3.60652,3.95 1.32485,2.52702 1.32485,5.79007 v 13.83728 h -4.04814 v -13.3466 q 0,-3.58199 -1.9382,-5.79006 -1.91367,-2.20808 -5.00498,-2.20808 -2.0854,0 -3.72919,1.03044 -1.64379,1.0059 -2.60062,2.74783 -0.95684,1.74192 -0.95684,3.97453 v 13.59194 z"
             style="font-size:50.246px;line-height:1.25;font-family:'Kumbh Sans';-inkscape-font-specification:'Kumbh Sans';letter-spacing:-2.58233px;fill:#272d2d;fill-opacity:1;stroke-width:1.25616"
             id="path938" />
          <path
             d="m 308.8002,102.23293 q 2.69876,0 5.00497,0.98137 2.30621,0.98137 3.95,2.7233 V 90.456529 h 4.04814 V 127.2578 h -3.65559 l -0.22081,-3.41025 q -1.64379,1.81553 -3.99907,2.8705 -2.35528,1.03043 -5.12764,1.03043 -3.55746,0 -6.37889,-1.64379 -2.79689,-1.66832 -4.41615,-4.53882 -1.59472,-2.89504 -1.59472,-6.57516 0,-3.68013 1.59472,-6.55063 1.61926,-2.89503 4.41615,-4.53882 2.82143,-1.66833 6.37889,-1.66833 z m -8.21895,12.75778 q 0,2.60062 1.10404,4.66149 1.12857,2.06087 3.06677,3.23851 1.9382,1.17764 4.41615,1.17764 2.47795,0 4.41615,-1.17764 1.9382,-1.17764 3.04224,-3.23851 1.12857,-2.06087 1.12857,-4.66149 0,-2.62516 -1.12857,-4.6615 -1.10404,-2.06087 -3.04224,-3.23851 -1.9382,-1.17764 -4.41615,-1.17764 -2.47795,0 -4.41615,1.17764 -1.9382,1.17764 -3.06677,3.23851 -1.10404,2.03634 -1.10404,4.6615 z"
             style="font-size:50.246px;line-height:1.25;font-family:'Kumbh Sans';-inkscape-font-specification:'Kumbh Sans';letter-spacing:-2.58233px;fill:#272d2d;fill-opacity:1;stroke-width:1.25616"
             id="path940" />
          <path
             d="m 350.40392,114.96617 v 1.64379 h -20.80498 q 0.61336,3.26305 3.14038,5.37299 2.55155,2.0854 6.13354,2.0854 1.98727,0 4.19535,-0.76056 2.20807,-0.78509 4.0236,-2.50248 l 2.37982,3.04224 q -2.67423,2.23261 -5.34846,3.06677 -2.64969,0.83416 -5.12764,0.83416 -3.97454,0 -7.06584,-1.64379 -3.09131,-1.66832 -4.85777,-4.58789 -1.74193,-2.91957 -1.74193,-6.64876 0,-3.63106 1.64379,-6.47703 1.64379,-2.8705 4.51429,-4.51429 2.8705,-1.64379 6.50156,-1.64379 3.63106,0 6.42796,1.64379 2.79689,1.64379 4.39161,4.51429 1.59472,2.8705 1.59472,6.57516 z m -20.85405,-1.79099 h 16.63418 q -0.53976,-3.21398 -2.77237,-5.22578 -2.23261,-2.03634 -5.44658,-2.03634 -3.26305,0 -5.56926,2.06087 -2.30622,2.03634 -2.84597,5.20125 z"
             style="font-size:50.246px;line-height:1.25;font-family:'Kumbh Sans';-inkscape-font-specification:'Kumbh Sans';letter-spacing:-2.58233px;fill:#272d2d;fill-opacity:1;stroke-width:1.25616"
             id="path942" />
          <path
             id="path944"
             style="font-size:50.246px;line-height:1.25;font-family:'Kumbh Sans';-inkscape-font-specification:'Kumbh Sans';letter-spacing:-2.58233px;fill:#272d2d;fill-opacity:1;stroke-width:1.25616"
             d="m 354.0042,127.2578 v -14.58248 c 0,-6.64369 4.86737,-10.44239 11.70281,-10.44239 0.73602,0 1.50476,0.0736 2.30621,0.22081 l -0.58882,3.75373 c -0.80145,-0.19627 -1.55383,-0.29441 -2.25715,-0.29441 -5.60737,0 -7.11491,3.59014 -7.11491,8.66057 v 12.68417 z"
             sodipodi:nodetypes="ccccccccc" />
        </g>
      </g>
    </g>
  </g>
</svg>
